<svg width="25" height="25" viewBox="0 0 25 25" fill="none" xmlns="http://www.w3.org/2000/svg">
<g clip-path="url(#clip0_46_8132)">
<path d="M16.3336 0H8.65938C1.65625 0 -0.00390625 1.66016 -0.00390625 8.66328V16.3375C-0.00390625 23.3406 1.65625 25.0008 8.65938 25.0008H16.3336C23.3367 25.0008 24.9969 23.3406 24.9969 16.3375V8.66328C24.9969 1.66016 23.3203 0 16.3336 0ZM20.1789 17.8344H18.3641C17.6766 17.8344 17.4648 17.2891 16.2281 16.0359C15.1539 14.9945 14.6781 14.8563 14.4133 14.8563C14.0391 14.8563 13.9328 14.9617 13.9328 15.475V17.1148C13.9328 17.5547 13.7945 17.8188 12.6305 17.8188C10.7055 17.8188 8.56953 16.6547 7.07188 14.4859C4.81328 11.3078 4.19531 8.92734 4.19531 8.43516C4.19531 8.17031 4.30078 7.92266 4.80938 7.92266H6.62813C7.08828 7.92266 7.26328 8.13437 7.44219 8.62656C8.34141 11.2227 9.83907 13.4969 10.457 13.4969C10.6852 13.4969 10.7906 13.3914 10.7906 12.8094V10.1281C10.7211 8.89141 10.0703 8.78516 10.0703 8.34609C10.0703 8.13437 10.2453 7.92266 10.5258 7.92266H13.3859C13.7727 7.92266 13.9148 8.13437 13.9148 8.58984V12.207C13.9148 12.5977 14.0898 12.7359 14.1953 12.7359C14.4234 12.7359 14.6188 12.5977 15.0414 12.1742C16.3477 10.7094 17.2836 8.45078 17.2836 8.45078C17.4055 8.18594 17.6172 7.93828 18.0773 7.93828H19.8961C20.4414 7.93828 20.5633 8.21875 20.4414 8.60938C20.2133 9.66719 17.9875 12.8086 17.9875 12.8086C17.7961 13.1258 17.7227 13.2641 17.9875 13.618C18.1828 13.8828 18.818 14.432 19.2406 14.9242C20.018 15.807 20.6156 16.5477 20.775 17.0602C20.9539 17.5688 20.6898 17.8336 20.1766 17.8336L20.1789 17.8344Z" fill="#E0E0E0"/>
</g>
<defs>
<clipPath id="clip0_46_8132">
<rect width="25" height="25" fill="white"/>
</clipPath>
</defs>
</svg>
