<svg width="26" height="27" viewBox="0 0 26 27" fill="none" xmlns="http://www.w3.org/2000/svg">
<path fill-rule="evenodd" clip-rule="evenodd" d="M10.3461 0.715347C6.65923 0.715347 3.69865 3.76218 3.69865 7.55754C3.69865 11.352 6.65963 14.3997 10.3461 14.3997C14.0335 14.3997 16.9936 11.3524 16.9936 7.55754C16.9936 3.76177 14.0339 0.715347 10.3461 0.715347ZM10.3461 2.64526C12.9984 2.64526 15.1186 4.82763 15.1186 7.55754C15.1186 10.2866 12.9979 12.4698 10.3461 12.4698C7.69517 12.4698 5.57365 10.2862 5.57365 7.55754C5.57365 4.82811 7.6947 2.64526 10.3461 2.64526ZM10.3462 16.7418C4.05874 16.7418 0.5 17.9698 0.5 21.4495C0.5 24.933 4.07453 26.1842 10.3462 26.1842L11.1506 26.1771C16.935 26.0731 20.1925 24.804 20.1925 21.4765C20.1925 18.0687 16.7717 16.7972 10.7514 16.7435L10.3462 16.7418ZM10.3462 18.6717C15.5981 18.6717 18.3175 19.6236 18.3175 21.4765C18.3175 23.3179 15.6047 24.2543 10.3462 24.2543C5.09442 24.2543 2.375 23.3024 2.375 21.4495C2.375 19.6571 4.9417 18.7229 9.92535 18.6737L10.3462 18.6717ZM22.0045 8.33105C22.4791 8.33105 22.8713 8.69407 22.9334 9.16507L22.942 9.29601V10.9106H24.5621C25.0799 10.9106 25.4996 11.3426 25.4996 11.8755C25.4996 12.3641 25.1469 12.7678 24.6894 12.8317L24.5621 12.8405H22.942V14.4553C22.942 14.9883 22.5222 15.4203 22.0045 15.4203C21.5299 15.4203 21.1376 15.0573 21.0755 14.5863L21.067 14.4553V12.8405H19.4496C18.9319 12.8405 18.5121 12.4085 18.5121 11.8755C18.5121 11.387 18.8648 10.9833 19.3224 10.9194L19.4496 10.9106H21.067V9.29601C21.067 8.76308 21.4867 8.33105 22.0045 8.33105Z" fill="#3FCF5E"/>
</svg>
