<svg width="26" height="26" viewBox="0 0 26 26" fill="none" xmlns="http://www.w3.org/2000/svg">
<path fill-rule="evenodd" clip-rule="evenodd" d="M10.3465 0.499863C6.6596 0.499863 3.69901 3.46 3.69901 7.14736C3.69901 10.8339 6.66 13.7949 10.3465 13.7949C14.0339 13.7949 16.994 10.8343 16.994 7.14736C16.994 3.4596 14.0343 0.499863 10.3465 0.499863ZM10.3465 2.37486C12.9987 2.37486 15.119 4.49513 15.119 7.14736C15.119 9.79881 12.9983 11.9199 10.3465 11.9199C7.69553 11.9199 5.57401 9.79835 5.57401 7.14736C5.57401 4.49559 7.69507 2.37486 10.3465 2.37486ZM10.3466 16.0702C4.0591 16.0702 0.500366 17.2633 0.500366 20.644C0.500366 24.0284 4.0749 25.244 10.3466 25.244L11.151 25.2371C16.9354 25.136 20.1929 23.9031 20.1929 20.6702C20.1929 17.3594 16.7721 16.1241 10.7518 16.072L10.3466 16.0702ZM10.3466 17.9452C15.5984 17.9452 18.3179 18.87 18.3179 20.6702C18.3179 22.4593 15.6051 23.369 10.3466 23.369C5.09478 23.369 2.37537 22.4442 2.37537 20.644C2.37537 18.9026 4.94207 17.995 9.92572 17.9472L10.3466 17.9452ZM22.0048 7.89886C22.4795 7.89886 22.8717 8.25155 22.9338 8.70915L22.9423 8.83636V10.405H24.5625C25.0803 10.405 25.5 10.8247 25.5 11.3425C25.5 11.8171 25.1473 12.2093 24.6897 12.2714L24.5625 12.28H22.9423V13.8489C22.9423 14.3666 22.5226 14.7864 22.0048 14.7864C21.5302 14.7864 21.138 14.4337 21.0759 13.9761L21.0673 13.8489V12.28H19.45C18.9322 12.28 18.5125 11.8602 18.5125 11.3425C18.5125 10.8679 18.8652 10.4756 19.3228 10.4135L19.45 10.405H21.0673V8.83636C21.0673 8.31859 21.4871 7.89886 22.0048 7.89886Z" fill="#333333"/>
</svg>
