<svg width="19" height="19" viewBox="0 0 19 19" fill="none" xmlns="http://www.w3.org/2000/svg">
<path fill-rule="evenodd" clip-rule="evenodd" d="M1.13403 11.4956L11.2284 1.60065C12.5271 0.327566 14.6336 0.327566 15.9323 1.60065L17.2806 2.92229C18.5793 4.19537 18.5793 6.26026 17.2806 7.53334L7.14647 17.4673C6.56698 18.0353 5.78132 18.3541 4.96127 18.3541H0.81098C0.425432 18.3541 0.115609 18.0427 0.125218 17.6649L0.229616 13.5599C0.250372 12.784 0.574239 12.0443 1.13403 11.4956ZM16.3106 3.87325L14.9623 2.5516C14.1994 1.80372 12.9615 1.80372 12.1986 2.5516L11.4148 3.31986L15.5273 7.35022L16.3106 6.58239C17.0736 5.83451 17.0736 4.62113 16.3106 3.87325ZM2.10426 12.4465L10.4447 4.27081L14.5572 8.30117L6.17646 16.5163L6.06499 16.6164C5.75709 16.8692 5.36701 17.0092 4.96138 17.0092L1.51412 17.0087L1.60123 13.5942C1.61276 13.1634 1.79309 12.7515 2.10426 12.4465ZM18.875 17.6817C18.875 17.3104 18.5679 17.0093 18.189 17.0093H11.0323L10.9392 17.0155C10.6044 17.06 10.3463 17.3413 10.3463 17.6817C10.3463 18.0531 10.6534 18.3542 11.0323 18.3542H18.189L18.2821 18.348C18.6169 18.3035 18.875 18.0222 18.875 17.6817Z" fill="#3FCF5E"/>
</svg>
