<?xml version="1.0" standalone="no"?>
<!DOCTYPE svg PUBLIC "-//W3C//DTD SVG 20010904//EN"
 "http://www.w3.org/TR/2001/REC-SVG-20010904/DTD/svg10.dtd">
<svg version="1.0" xmlns="http://www.w3.org/2000/svg"
 width="1280.000000pt" height="1280.000000pt" viewBox="0 0 1280.000000 1280.000000"
 preserveAspectRatio="xMidYMid meet">
<metadata>
Created by potrace 1.15, written by Peter Selinger 2001-2017
</metadata>
<g transform="translate(0.000000,1280.000000) scale(0.100000,-0.100000)"
fill="#009688" stroke="none">
<path d="M5780 12794 c-19 -3 -64 -9 -100 -15 -36 -6 -99 -14 -140 -19 -41 -4
-118 -15 -170 -25 -52 -9 -117 -20 -145 -24 -27 -5 -70 -13 -95 -19 -25 -6
-72 -15 -105 -22 -33 -6 -82 -17 -110 -25 -27 -8 -61 -16 -75 -19 -70 -14
-126 -29 -135 -37 -5 -5 -20 -9 -33 -9 -13 0 -56 -11 -95 -24 -40 -13 -115
-37 -167 -54 -135 -44 -182 -60 -235 -82 -16 -6 -50 -19 -75 -27 -25 -8 -60
-21 -77 -29 -32 -13 -86 -36 -128 -54 -152 -62 -559 -268 -715 -360 -169 -101
-363 -221 -370 -230 -3 -4 -21 -18 -41 -31 -32 -21 -109 -76 -189 -134 -79
-57 -297 -229 -310 -245 -3 -3 -36 -32 -75 -65 -275 -235 -603 -580 -855 -900
-157 -199 -425 -595 -480 -710 -6 -11 -16 -29 -22 -40 -47 -73 -73 -120 -206
-380 -39 -77 -114 -242 -172 -380 -10 -25 -57 -146 -77 -200 -8 -22 -19 -48
-24 -57 -5 -10 -9 -25 -9 -34 0 -9 -6 -28 -14 -42 -12 -24 -32 -86 -84 -257
-8 -27 -19 -58 -23 -67 -5 -10 -9 -29 -9 -44 0 -14 -5 -35 -12 -47 -11 -21
-19 -50 -37 -142 -5 -22 -13 -53 -20 -68 -6 -16 -11 -40 -11 -54 0 -15 -4 -40
-9 -57 -12 -40 -32 -128 -42 -191 -4 -27 -15 -90 -24 -140 -9 -49 -20 -126
-25 -170 -4 -44 -14 -107 -22 -140 -10 -47 -13 -203 -13 -725 0 -522 3 -678
13 -725 8 -33 18 -96 22 -140 5 -44 16 -120 25 -170 9 -49 20 -115 24 -145 5
-30 14 -71 20 -90 6 -19 11 -49 11 -67 0 -17 5 -35 10 -38 6 -3 10 -21 10 -40
0 -19 5 -46 11 -62 7 -15 15 -46 20 -68 21 -108 30 -140 39 -149 6 -6 10 -23
10 -38 0 -16 4 -36 9 -46 4 -9 15 -39 23 -67 52 -171 72 -233 84 -257 8 -14
14 -33 14 -42 0 -9 4 -24 9 -34 5 -9 16 -35 24 -57 47 -125 94 -242 135 -335
64 -143 86 -191 114 -245 108 -210 147 -285 171 -322 15 -24 27 -45 27 -48 0
-4 38 -69 88 -152 79 -131 294 -445 384 -560 62 -80 179 -226 187 -233 4 -3
47 -52 96 -110 117 -136 441 -460 575 -575 58 -49 107 -92 110 -95 29 -35 371
-294 499 -379 20 -13 38 -27 41 -31 5 -7 321 -204 375 -234 17 -9 46 -26 65
-37 41 -25 179 -98 305 -162 115 -58 270 -129 410 -187 11 -4 36 -14 55 -22
19 -8 51 -21 70 -28 19 -7 49 -19 67 -26 17 -8 38 -14 46 -14 9 0 19 -4 22
-10 3 -5 15 -10 27 -10 11 0 32 -6 46 -14 15 -8 68 -26 117 -41 50 -15 124
-38 165 -51 41 -12 102 -30 135 -39 33 -8 74 -20 91 -25 17 -6 38 -10 48 -10
10 0 39 -7 65 -15 25 -8 73 -19 106 -25 33 -6 78 -16 100 -22 22 -6 65 -14 95
-19 30 -4 96 -15 145 -24 50 -9 126 -20 170 -25 44 -4 107 -14 140 -22 87 -19
1350 -19 1445 0 36 8 101 18 145 22 44 5 121 16 170 25 50 9 115 20 145 24 30
5 73 13 95 19 22 6 67 16 100 22 33 6 83 17 110 25 28 8 61 16 75 19 70 14
126 29 135 37 5 5 20 9 33 9 13 0 56 11 95 24 40 13 113 36 162 51 50 15 102
33 117 41 14 8 35 14 46 14 12 0 23 4 26 9 3 5 16 11 28 14 24 5 147 50 183
66 11 5 38 16 60 26 69 28 79 33 125 53 233 104 446 212 629 319 124 73 385
235 391 243 3 4 23 19 45 33 107 70 465 343 495 377 3 3 37 32 75 65 200 171
477 449 666 670 82 97 271 333 296 371 7 11 49 70 94 133 105 148 247 370 279
436 6 11 16 29 22 40 57 89 196 352 260 495 14 30 36 80 50 110 42 90 69 157
118 285 4 11 15 40 25 65 32 83 55 148 62 175 2 11 8 29 13 40 11 27 34 98 55
170 10 33 21 69 26 80 4 11 10 34 13 50 2 17 12 55 21 85 10 30 21 76 25 102
5 26 13 56 19 67 6 11 11 32 11 47 0 15 4 41 9 58 12 39 31 127 42 191 5 28
15 91 24 140 9 50 20 126 25 170 4 44 15 127 24 185 23 154 23 1206 0 1360 -9
58 -20 141 -24 185 -5 44 -16 121 -25 170 -9 50 -20 113 -24 140 -10 62 -29
150 -42 191 -5 17 -9 43 -9 58 0 15 -5 36 -11 47 -6 11 -14 41 -19 67 -4 26
-15 72 -25 102 -9 30 -19 69 -21 85 -3 17 -9 39 -13 50 -5 11 -16 47 -26 80
-19 64 -42 137 -55 170 -17 47 -32 91 -37 110 -2 11 -8 29 -13 40 -8 21 -37
97 -50 130 -16 41 -43 111 -57 145 -28 67 -31 75 -56 130 -93 204 -78 173
-187 384 -66 128 -94 179 -128 231 -6 11 -16 29 -22 40 -57 118 -311 491 -484
713 -228 290 -624 710 -816 866 -19 15 -53 45 -75 65 -61 56 -242 201 -345
276 -80 58 -157 113 -189 134 -20 13 -38 27 -41 31 -6 8 -347 220 -354 220 -2
0 -40 22 -83 48 -43 27 -177 97 -298 157 -238 117 -285 138 -420 195 -11 4
-36 15 -57 24 -20 9 -41 16 -47 16 -6 0 -19 4 -29 9 -33 17 -196 78 -237 88
-11 2 -29 8 -40 13 -32 13 -105 36 -170 55 -33 9 -70 21 -83 26 -13 5 -33 9
-45 9 -13 0 -27 4 -33 9 -9 8 -63 23 -149 40 -22 5 -53 13 -68 20 -16 6 -40
11 -54 11 -15 0 -40 4 -57 9 -36 11 -162 37 -221 47 -22 3 -76 12 -120 20 -44
8 -118 19 -165 24 -47 6 -107 15 -135 21 -48 11 -1261 22 -1345 13z m764
-3115 c92 -16 214 -57 281 -94 91 -51 158 -116 326 -321 290 -351 371 -449
404 -489 18 -22 90 -110 160 -195 263 -318 373 -451 495 -600 69 -84 172 -210
230 -280 58 -70 173 -210 255 -310 83 -100 197 -240 255 -309 58 -70 121 -147
140 -171 19 -24 58 -71 86 -104 27 -34 81 -99 119 -146 38 -47 77 -94 86 -105
16 -18 88 -105 162 -196 16 -19 43 -52 60 -73 18 -22 70 -85 115 -140 46 -56
99 -119 117 -141 31 -38 196 -239 375 -456 106 -128 159 -198 171 -224 5 -11
13 -27 18 -35 9 -15 15 -30 44 -105 41 -105 41 -335 0 -440 -28 -74 -35 -90
-44 -105 -5 -8 -16 -29 -24 -47 -23 -45 -120 -149 -179 -192 -164 -119 -371
-166 -551 -125 -72 16 -78 18 -155 50 -107 45 -206 129 -325 277 -26 33 -55
69 -65 80 -36 43 -186 224 -220 267 -19 24 -73 89 -118 144 -46 56 -99 119
-117 141 -17 22 -90 110 -161 196 -71 86 -185 225 -254 309 -135 165 -251 306
-485 590 -82 100 -197 239 -255 309 -135 164 -283 344 -450 546 -72 88 -146
178 -164 200 -18 22 -89 108 -157 190 -68 83 -147 178 -174 212 -55 69 -82 79
-108 39 -9 -13 -22 -29 -29 -37 -7 -8 -58 -70 -113 -138 -238 -296 -398 -494
-405 -501 -6 -5 -91 -110 -342 -420 -64 -80 -161 -199 -215 -266 -54 -66 -127
-156 -162 -200 -36 -43 -94 -115 -130 -159 -36 -44 -83 -102 -105 -130 -23
-27 -43 -52 -46 -55 -3 -3 -43 -52 -89 -110 -83 -103 -196 -243 -316 -390 -34
-41 -99 -122 -146 -180 -46 -58 -88 -110 -94 -116 -27 -30 -96 -116 -339 -418
-156 -196 -225 -273 -280 -315 -57 -43 -159 -101 -177 -101 -6 0 -25 -6 -42
-14 -30 -14 -49 -17 -176 -32 -74 -9 -210 14 -296 51 -16 7 -37 16 -45 19 -38
16 -96 56 -154 108 -204 183 -284 485 -199 753 9 28 20 54 24 60 5 5 9 15 9
23 0 22 79 136 190 272 55 69 133 165 173 214 40 49 97 119 127 156 30 36 69
84 87 106 17 21 86 107 153 189 66 83 153 190 193 239 61 76 107 132 205 251
10 11 44 54 77 95 33 41 62 77 65 80 3 3 51 61 105 129 55 68 132 163 170 211
39 47 106 131 150 186 44 54 82 101 86 104 3 3 54 66 114 140 60 74 136 169
170 210 34 41 108 134 165 205 58 72 107 132 110 135 3 3 55 66 115 140 60 74
137 170 172 213 58 71 138 170 237 292 23 28 43 52 46 55 3 3 52 64 109 135
58 72 132 164 166 205 34 41 89 109 123 152 149 184 280 267 478 303 91 16
117 17 188 4z"/>
</g>
</svg>
